<svg id="圖層_2" data-name="圖層 2" xmlns="http://www.w3.org/2000/svg" viewBox="0 0 32 32"><defs><style>.cls-1{fill:none;}.cls-2{fill:#fff;}</style></defs><title>1</title><g id="Group_67" data-name="Group 67"><g id="Path_47" data-name="Path 47"><path class="cls-1" d="M16,0A16,16,0,1,1,0,16,16,16,0,0,1,16,0Z"/><path class="cls-2" d="M16,3A13,13,0,0,0,6.81,25.19,13,13,0,1,0,25.19,6.81,12.89,12.89,0,0,0,16,3m0-3A16,16,0,1,1,0,16,16,16,0,0,1,16,0Z"/></g><g id="Group_68" data-name="Group 68"><circle id="Ellipse_7" data-name="Ellipse 7" class="cls-2" cx="16" cy="11" r="2"/><rect id="Rectangle_97" data-name="Rectangle 97" class="cls-2" x="14" y="14" width="4" height="10"/></g></g></svg>