<svg id="圖層_2" data-name="圖層 2" xmlns="http://www.w3.org/2000/svg" viewBox="0 0 508 642.97"><defs><style>.cls-1,.cls-5{fill:#fff;}.cls-2,.cls-3{fill:none;}.cls-3{stroke:#fff;stroke-width:10px;}.cls-4,.cls-5{isolation:isolate;}.cls-5{font-size:30px;font-family:NotoSansCJKtc-Regular-B5pc-H, Noto Sans CJK TC;letter-spacing:0.02em;}</style></defs><title>1</title><g id="Group_142" data-name="Group 142"><g id="Group_66" data-name="Group 66"><path id="Path_1" data-name="Path 1" class="cls-1" d="M346.75,208.65v56.06h13.47v37.47H326.71v12.24H294V302.18H231.36v15.35H206.27v11.15H177.13V287.92H151.79v-23.2h25.34V223.94h23.72v40.77H241.7V237.19h39.23V208.65h65.82m11.84-11.84h-89.5v28.54H229.86v27.52H212.69V212.1h-47.4v40.77H140v46.89h25.34v40.77h52.82V329.37H243.2V314h39v12.23h56.39V314h33.52V252.87H358.59Z"/><rect id="Rectangle_2" data-name="Rectangle 2" class="cls-1" x="144.69" y="263.05" width="18.95" height="28.42"/><rect id="Rectangle_3" data-name="Rectangle 3" class="cls-1" x="256.01" y="258.32" width="26.05" height="30.79"/><rect id="Rectangle_4" data-name="Rectangle 4" class="cls-1" x="274.96" y="206.21" width="75.79" height="18.95"/><rect id="Rectangle_5" data-name="Rectangle 5" class="cls-1" x="296.27" y="237" width="35.53" height="40.26"/><rect id="Rectangle_6" data-name="Rectangle 6" class="cls-1" x="201.53" y="282" width="16.58" height="49.74"/></g><rect id="Rectangle_89" data-name="Rectangle 89" class="cls-1" x="273.47" y="138.32" width="26.05" height="30.79"/><rect id="Rectangle_92" data-name="Rectangle 92" class="cls-1" x="388" y="89.32" width="66.05" height="48.79"/><rect id="Rectangle_90" data-name="Rectangle 90" class="cls-1" x="323.74" width="35.53" height="40.26"/><rect id="Rectangle_91" data-name="Rectangle 91" class="cls-1" x="228" y="67" width="16.58" height="49.74"/><rect id="Rectangle_93" data-name="Rectangle 93" class="cls-1" x="171" y="171.79" width="56.58" height="30.74"/><g id="Ellipse_4" data-name="Ellipse 4"><circle class="cls-2" cx="254" cy="279.53" r="254"/><circle class="cls-3" cx="254" cy="279.53" r="249"/></g><g id="將檔案拖曳至此" class="cls-4"><text class="cls-5" transform="translate(147 427.53)">將檔案拖曳至此</text></g><g id="將會上傳至_我的雲端_位置" data-name="將會上傳至 我的雲端 位置" class="cls-4"><text class="cls-5" transform="translate(78 611.53)">將會上傳至 我的雲端 位置</text></g></g></svg>