<svg id="圖層_2" data-name="圖層 2" xmlns="http://www.w3.org/2000/svg" viewBox="0 0 108.03 99.93"><defs><style>.cls-1{fill:#00b8ab;}.cls-2{fill:#00a99d;}</style></defs><title>1</title><g id="Group_1" data-name="Group 1"><path id="Path_1" data-name="Path 1" class="cls-1" d="M96.3,5.49v26h6.24V48.81H87v5.67H71.87V48.81h-29v7.11H31.23v5.17H17.73V42.2H6V31.45H17.74V12.57h11V31.45H47.64V18.71H65.81V5.49H96.3M101.79,0H60.33V13.22H42.16V26H34.21V7.08h-22V26H.51V47.69H12.25V66.57H36.72V61.4H48.34V54.3h18V60H92.51V54.3H108V26h-6.24V0Z"/><rect id="Rectangle_2" data-name="Rectangle 2" class="cls-1" x="2.71" y="30.69" width="8.78" height="13.16"/><rect id="Rectangle_3" data-name="Rectangle 3" class="cls-1" x="54.27" y="28.49" width="12.07" height="14.26"/><rect id="Rectangle_4" data-name="Rectangle 4" class="cls-1" x="63.05" y="4.36" width="35.11" height="8.78"/><rect id="Rectangle_5" data-name="Rectangle 5" class="cls-1" x="72.92" y="18.62" width="16.46" height="18.65"/><rect id="Rectangle_6" data-name="Rectangle 6" class="cls-1" x="29.04" y="39.46" width="7.68" height="23.04"/></g><g id="Group_2" data-name="Group 2"><rect id="Rectangle_7" data-name="Rectangle 7" class="cls-2" x="3.19" y="87.37" width="3.06" height="3.68"/><rect id="Rectangle_8" data-name="Rectangle 8" class="cls-2" y="92.07" width="9.28" height="2.5"/><path id="Path_2" data-name="Path 2" class="cls-2" d="M21.74,96.45H13.57V94.11h2.56v.83h2.79v-.83h1.46V91.32H18.92V89.57h2.56V86.78H18.92V85h1.39V82.24H11.36l1.42-3.14L10.25,78,6.93,85.28l2.53,1.15L10.58,84l.21.05V99.23h11ZM13.57,85h2.56v1.76H14.89v2.78h1.24v1.76H13.57Z"/><rect id="Rectangle_9" data-name="Rectangle 9" class="cls-2" x="16.13" y="79.46" width="2.79" height="1.98"/><path id="Path_3" data-name="Path 3" class="cls-2" d="M.61,86.42H6.25v-6.6H3.19v3.52H.61Z"/><path id="Path_4" data-name="Path 4" class="cls-2" d="M33.86,87.37H30.8v4.7H27.6v2.5h9.28v-2.5h-3Z"/><path id="Path_5" data-name="Path 5" class="cls-2" d="M89.64,87.39H86.92v7.24H86v2.72h7.07V94.63H89.64Z"/><path id="Path_6" data-name="Path 6" class="cls-2" d="M90.36,93.21h2.71V85.12H94V82.4H86.36v2.72h4Z"/><path id="Path_7" data-name="Path 7" class="cls-2" d="M97.51,79.4H94.79v5.72h7.65V82.4H97.51Z"/><rect id="Rectangle_10" data-name="Rectangle 10" class="cls-2" x="99.58" y="78.33" width="2.72" height="3.29"/><path id="Path_8" data-name="Path 8" class="cls-2" d="M100.73,88.7h7V86H94.79V88.7H98v1.14H94.43V99.93h2.72V92.56H98v6.36h2.72V92.56h.93v6.36h2.71V92.56h.94v7.37H108V89.84h-7.3Z"/><rect id="Rectangle_11" data-name="Rectangle 11" class="cls-2" x="104.3" y="79.4" width="2.72" height="5.72"/><rect id="Rectangle_12" data-name="Rectangle 12" class="cls-2" x="88.85" y="78.9" width="2.72" height="1.93"/><path id="Path_9" data-name="Path 9" class="cls-2" d="M46.52,94.11H49.3V91.32H46.52V89.57h1.32V86.78H46.52v-.54H43.73v.54H41.17V85H49.3V82.24H39l1.42-3.14L37.85,78l-3.32,7.32,2.54,1.15L38.19,84l.2,0V99.23h12.4V96.44H46.52Zm-2.78-2.79h-1v2.79h1v2.34H41.18V89.57h2.56Z"/><rect id="Rectangle_13" data-name="Rectangle 13" class="cls-2" x="43.74" y="79.46" width="2.79" height="1.98"/><rect id="Rectangle_14" data-name="Rectangle 14" class="cls-2" x="63.28" y="88.91" width="11.58" height="2.71"/><path id="Path_10" data-name="Path 10" class="cls-2" d="M67.68,86.89H70.4V84.55h4.51V81.83H63.25v2.72h4.43Z"/><rect id="Rectangle_15" data-name="Rectangle 15" class="cls-2" x="72" y="85.62" width="2.9" height="2.29"/><rect id="Rectangle_16" data-name="Rectangle 16" class="cls-2" x="60.53" y="78.18" width="17.17" height="2.72"/><rect id="Rectangle_17" data-name="Rectangle 17" class="cls-2" x="63.25" y="85.62" width="2.9" height="2.29"/><rect id="Rectangle_18" data-name="Rectangle 18" class="cls-2" x="58.81" y="81.83" width="2.72" height="4.43"/><rect id="Rectangle_19" data-name="Rectangle 19" class="cls-2" x="76.62" y="81.83" width="2.72" height="4.43"/><rect id="Rectangle_20" data-name="Rectangle 20" class="cls-2" x="73.53" y="96.42" width="2.71" height="3.05"/><path id="Path_11" data-name="Path 11" class="cls-2" d="M62.68,99.57h9.15V96.85H65.4V95.42H79.34V92.71H58.89v2.71h3.79Z"/><path id="Path_12" data-name="Path 12" class="cls-2" d="M28.21,86.42h5.65v-6.6H30.8v3.52H28.21Z"/></g></svg>