<svg id="圖層_2" data-name="圖層 2" xmlns="http://www.w3.org/2000/svg" viewBox="0 0 46.66 28.64"><defs><style>.cls-1{fill:#606060;}</style></defs><title>1</title><g id="Group_119" data-name="Group 119"><g id="Group_117" data-name="Group 117"><path id="Path_38" data-name="Path 38" class="cls-1" d="M23.33,28.64C14.53,28.64,6.19,23.88,1,15.9L0,14.32l1-1.58C6.19,4.77,14.53,0,23.33,0S40.47,4.76,45.64,12.74l1,1.58-1,1.58C40.47,23.88,32.13,28.64,23.33,28.64ZM7,14.32a19.91,19.91,0,0,0,27.71,4.95,19.86,19.86,0,0,0,4.94-4.95A19.92,19.92,0,0,0,7,14.32Z"/></g><g id="Group_118" data-name="Group 118"><path id="Path_39" data-name="Path 39" class="cls-1" d="M23.33,22.74a8.42,8.42,0,1,1,8.41-8.42A8.42,8.42,0,0,1,23.33,22.74Zm0-11a2.61,2.61,0,1,0,2.61,2.61,2.61,2.61,0,0,0-2.61-2.61Z"/></g></g></svg>